<mxfile host="Electron" agent="Mozilla/5.0 (X11; Linux x86_64) AppleWebKit/537.36 (KHTML, like Gecko) draw.io/24.7.17 Chrome/128.0.6613.36 Electron/32.0.1 Safari/537.36" version="24.7.17">
  <diagram name="Page-1" id="JS_4U6BuzcudBBI3UEqu">
    <mxGraphModel dx="335" dy="579" grid="1" gridSize="10" guides="1" tooltips="1" connect="1" arrows="1" fold="1" page="1" pageScale="1" pageWidth="850" pageHeight="1100" math="1" shadow="0">
      <root>
        <mxCell id="0" />
        <mxCell id="1" parent="0" />
        <mxCell id="87j7zEzCCwEWPzQGNwbk-17" value="" style="endArrow=none;html=1;rounded=0;entryX=0;entryY=0.5;entryDx=0;entryDy=0;strokeColor=#A9A9A9;" edge="1" parent="1" source="87j7zEzCCwEWPzQGNwbk-19">
          <mxGeometry width="50" height="50" relative="1" as="geometry">
            <mxPoint x="80" y="445" as="sourcePoint" />
            <mxPoint x="160" y="445" as="targetPoint" />
          </mxGeometry>
        </mxCell>
        <mxCell id="87j7zEzCCwEWPzQGNwbk-18" value="" style="endArrow=none;html=1;rounded=0;strokeColor=#A9A9A9;" edge="1" parent="1">
          <mxGeometry width="50" height="50" relative="1" as="geometry">
            <mxPoint x="165" y="444.82" as="sourcePoint" />
            <mxPoint x="240" y="445" as="targetPoint" />
          </mxGeometry>
        </mxCell>
        <mxCell id="87j7zEzCCwEWPzQGNwbk-20" value="" style="endArrow=none;html=1;rounded=0;strokeColor=#A9A9A9;align=center;verticalAlign=middle;fontFamily=Helvetica;fontSize=11;fontColor=default;labelBackgroundColor=default;" edge="1" parent="1">
          <mxGeometry width="50" height="50" relative="1" as="geometry">
            <mxPoint x="80" y="485" as="sourcePoint" />
            <mxPoint x="240" y="485" as="targetPoint" />
          </mxGeometry>
        </mxCell>
        <mxCell id="87j7zEzCCwEWPzQGNwbk-21" value="$$\oplus$$" style="edgeLabel;html=1;align=center;verticalAlign=middle;resizable=0;points=[];rounded=0;strokeColor=#A9A9A9;fontFamily=Helvetica;fontSize=11;fontColor=default;labelBackgroundColor=default;fillColor=none;" vertex="1" connectable="0" parent="87j7zEzCCwEWPzQGNwbk-20">
          <mxGeometry x="-0.0527" relative="1" as="geometry">
            <mxPoint x="4" as="offset" />
          </mxGeometry>
        </mxCell>
        <mxCell id="87j7zEzCCwEWPzQGNwbk-22" value="" style="endArrow=none;html=1;rounded=0;entryX=0;entryY=0.5;entryDx=0;entryDy=0;strokeColor=#A9A9A9;" edge="1" parent="1" target="87j7zEzCCwEWPzQGNwbk-19">
          <mxGeometry width="50" height="50" relative="1" as="geometry">
            <mxPoint x="80" y="445" as="sourcePoint" />
            <mxPoint x="160" y="445" as="targetPoint" />
          </mxGeometry>
        </mxCell>
        <mxCell id="87j7zEzCCwEWPzQGNwbk-23" style="edgeStyle=none;shape=connector;rounded=0;orthogonalLoop=1;jettySize=auto;html=1;strokeColor=#A9A9A9;align=center;verticalAlign=middle;fontFamily=Helvetica;fontSize=11;fontColor=default;labelBackgroundColor=default;endArrow=none;" edge="1" parent="1" source="87j7zEzCCwEWPzQGNwbk-19">
          <mxGeometry relative="1" as="geometry">
            <mxPoint x="160" y="480" as="targetPoint" />
          </mxGeometry>
        </mxCell>
        <mxCell id="87j7zEzCCwEWPzQGNwbk-19" value="" style="ellipse;whiteSpace=wrap;html=1;aspect=fixed;rounded=0;strokeColor=#A9A9A9;align=center;verticalAlign=middle;fontFamily=Helvetica;fontSize=11;fontColor=default;labelBackgroundColor=default;fillColor=#A9A9A9;" vertex="1" parent="1">
          <mxGeometry x="155" y="440" width="10" height="10" as="geometry" />
        </mxCell>
        <mxCell id="87j7zEzCCwEWPzQGNwbk-24" value="$$\ket{a}$$" style="text;html=1;align=center;verticalAlign=middle;resizable=0;points=[];autosize=1;strokeColor=none;fillColor=none;fontFamily=Helvetica;fontSize=11;fontColor=default;labelBackgroundColor=none;" vertex="1" parent="1">
          <mxGeometry x="24" y="429" width="80" height="30" as="geometry" />
        </mxCell>
        <mxCell id="87j7zEzCCwEWPzQGNwbk-25" value="$$\ket{b}$$" style="text;html=1;align=center;verticalAlign=middle;resizable=0;points=[];autosize=1;strokeColor=none;fillColor=none;fontFamily=Helvetica;fontSize=11;fontColor=default;labelBackgroundColor=none;" vertex="1" parent="1">
          <mxGeometry x="24" y="470" width="80" height="30" as="geometry" />
        </mxCell>
        <mxCell id="87j7zEzCCwEWPzQGNwbk-26" value="$$\ket{a}$$" style="text;html=1;align=center;verticalAlign=middle;resizable=0;points=[];autosize=1;strokeColor=none;fillColor=none;fontFamily=Helvetica;fontSize=11;fontColor=default;labelBackgroundColor=none;" vertex="1" parent="1">
          <mxGeometry x="220" y="430" width="80" height="30" as="geometry" />
        </mxCell>
        <mxCell id="87j7zEzCCwEWPzQGNwbk-27" value="$$\ket{a \oplus b}$$" style="text;html=1;align=center;verticalAlign=middle;resizable=0;points=[];autosize=1;strokeColor=none;fillColor=none;fontFamily=Helvetica;fontSize=11;fontColor=default;labelBackgroundColor=none;" vertex="1" parent="1">
          <mxGeometry x="210" y="470" width="120" height="30" as="geometry" />
        </mxCell>
        <mxCell id="87j7zEzCCwEWPzQGNwbk-29" style="edgeStyle=none;shape=connector;rounded=0;orthogonalLoop=1;jettySize=auto;html=1;strokeColor=#A9A9A9;align=center;verticalAlign=middle;fontFamily=Helvetica;fontSize=11;fontColor=default;labelBackgroundColor=default;endArrow=none;" edge="1" parent="1" source="87j7zEzCCwEWPzQGNwbk-30">
          <mxGeometry relative="1" as="geometry">
            <mxPoint x="200" y="555" as="targetPoint" />
          </mxGeometry>
        </mxCell>
        <mxCell id="87j7zEzCCwEWPzQGNwbk-30" value="" style="ellipse;whiteSpace=wrap;html=1;aspect=fixed;rounded=0;strokeColor=#A9A9A9;align=center;verticalAlign=middle;fontFamily=Helvetica;fontSize=11;fontColor=default;labelBackgroundColor=default;fillColor=#A9A9A9;" vertex="1" parent="1">
          <mxGeometry x="195" y="515" width="10" height="10" as="geometry" />
        </mxCell>
        <mxCell id="87j7zEzCCwEWPzQGNwbk-31" value="" style="ellipse;whiteSpace=wrap;html=1;aspect=fixed;rounded=0;strokeColor=#A9A9A9;align=center;verticalAlign=middle;fontFamily=Helvetica;fontSize=11;fontColor=default;labelBackgroundColor=default;fillColor=none;" vertex="1" parent="1">
          <mxGeometry x="195" y="555" width="10" height="10" as="geometry" />
        </mxCell>
        <mxCell id="87j7zEzCCwEWPzQGNwbk-32" value="" style="endArrow=none;html=1;rounded=0;strokeColor=#A9A9A9;align=center;verticalAlign=middle;fontFamily=Helvetica;fontSize=11;fontColor=default;labelBackgroundColor=default;strokeWidth=1;entryX=0.5;entryY=0;entryDx=0;entryDy=0;exitX=0.5;exitY=1;exitDx=0;exitDy=0;" edge="1" parent="1" source="87j7zEzCCwEWPzQGNwbk-31" target="87j7zEzCCwEWPzQGNwbk-31">
          <mxGeometry width="50" height="50" relative="1" as="geometry">
            <mxPoint x="170" y="580" as="sourcePoint" />
            <mxPoint x="220" y="530" as="targetPoint" />
          </mxGeometry>
        </mxCell>
        <mxCell id="87j7zEzCCwEWPzQGNwbk-33" value="" style="endArrow=none;html=1;rounded=0;strokeColor=#A9A9A9;align=center;verticalAlign=middle;fontFamily=Helvetica;fontSize=11;fontColor=default;labelBackgroundColor=default;strokeWidth=1;entryX=0;entryY=0.5;entryDx=0;entryDy=0;exitX=1;exitY=0.5;exitDx=0;exitDy=0;" edge="1" parent="1" source="87j7zEzCCwEWPzQGNwbk-31" target="87j7zEzCCwEWPzQGNwbk-31">
          <mxGeometry width="50" height="50" relative="1" as="geometry">
            <mxPoint x="210" y="575" as="sourcePoint" />
            <mxPoint x="210" y="565" as="targetPoint" />
          </mxGeometry>
        </mxCell>
      </root>
    </mxGraphModel>
  </diagram>
</mxfile>
